<svg width="400" height="400" viewBox="0 0 400 400" xmlns="http://www.w3.org/2000/svg">
  <defs>
    <linearGradient id="shellGrad2" x1="0%" y1="0%" x2="100%" y2="100%">
      <stop offset="0%" style="stop-color:#f59e0b;stop-opacity:1" />
      <stop offset="50%" style="stop-color:#d97706;stop-opacity:1" />
      <stop offset="100%" style="stop-color:#7c2d12;stop-opacity:1" />
    </linearGradient>
    <pattern id="shellPattern2" x="0" y="0" width="60" height="60" patternUnits="userSpaceOnUse">
      <polygon points="30,10 50,30 30,50 10,30" fill="none" stroke="#92400e" stroke-width="3"/>
      <circle cx="30" cy="30" r="10" fill="none" stroke="#7c2d12" stroke-width="2" opacity="0.5"/>
    </pattern>
  </defs>
  
  <!-- 배경 -->
  <rect width="400" height="400" fill="#fef9c3" rx="20"/>
  
  <!-- 돌 -->
  <ellipse cx="80" cy="320" rx="40" ry="20" fill="#a8a29e" opacity="0.5"/>
  <ellipse cx="320" cy="310" rx="35" ry="18" fill="#a8a29e" opacity="0.5"/>
  
  <!-- 그림자 -->
  <ellipse cx="200" cy="330" rx="100" ry="20" fill="#78716c" opacity="0.3"/>
  
  <!-- 거북이 (측면 뷰) -->
  
  <!-- 뒷다리 -->
  <ellipse cx="260" cy="290" rx="25" ry="20" fill="#6b7280"/>
  
  <!-- 등껍질 -->
  <path d="M 120 240 Q 120 180, 200 160 Q 280 180, 280 240 Q 280 280, 200 290 Q 120 280, 120 240"
        fill="url(#shellGrad2)"/>
  <path d="M 120 240 Q 120 180, 200 160 Q 280 180, 280 240 Q 280 280, 200 290 Q 120 280, 120 240"
        fill="url(#shellPattern2)" opacity="0.7"/>
  
  <!-- 등껍질 하이라이트 -->
  <ellipse cx="180" cy="200" rx="30" ry="18" fill="#fde68a" opacity="0.4"/>
  
  <!-- 머리와 목 (늘어뜨린 상태) -->
  <path d="M 120 240 Q 100 250, 90 270 Q 85 285, 95 290 Q 110 285, 115 270"
        fill="#6b7280"/>
  
  <!-- 앞다리 -->
  <ellipse cx="140" cy="285" rx="20" ry="18" fill="#6b7280"/>
  
  <!-- 눈 -->
  <circle cx="95" cy="265" r="6" fill="#1f2937"/>
  <circle cx="96" cy="264" r="2" fill="white"/>
  
  <!-- 코 -->
  <ellipse cx="88" cy="275" rx="2" ry="1.5" fill="#4b5563"/>
  
  <!-- 입 -->
  <path d="M 88 278 Q 95 280, 102 278" fill="none" stroke="#4b5563" stroke-width="1.5" stroke-linecap="round"/>
  
  <!-- 발 디테일 -->
  <ellipse cx="135" cy="300" rx="15" ry="8" fill="#4b5563" opacity="0.5"/>
  <ellipse cx="255" cy="305" rx="15" ry="8" fill="#4b5563" opacity="0.5"/>
  
  <!-- 발톱 -->
  <path d="M 130 300 L 128 303 M 135 301 L 133 304 M 140 300 L 138 303" 
        stroke="#374151" stroke-width="1.5" stroke-linecap="round"/>
  <path d="M 250 305 L 248 308 M 255 306 L 253 309 M 260 305 L 258 308" 
        stroke="#374151" stroke-width="1.5" stroke-linecap="round"/>
</svg>