<svg width="400" height="400" viewBox="0 0 400 400" xmlns="http://www.w3.org/2000/svg">
  <defs>
    <linearGradient id="crestedGrad" x1="0%" y1="0%" x2="100%" y2="100%">
      <stop offset="0%" style="stop-color:#d1fae5;stop-opacity:1" />
      <stop offset="50%" style="stop-color:#6ee7b7;stop-opacity:1" />
      <stop offset="100%" style="stop-color:#10b981;stop-opacity:1" />
    </linearGradient>
    <pattern id="crestedPattern" x="0" y="0" width="30" height="30" patternUnits="userSpaceOnUse">
      <path d="M 5 15 Q 15 10, 25 15" fill="none" stroke="#059669" stroke-width="2" opacity="0.3"/>
    </pattern>
  </defs>
  
  <!-- 배경 -->
  <rect width="400" height="400" fill="#ecfdf5" rx="20"/>
  
  <!-- 나뭇가지 -->
  <rect x="100" y="280" width="200" height="20" rx="10" fill="#92400e" opacity="0.6"/>
  
  <!-- 꼬리 - 특징적인 말린 꼬리 -->
  <path d="M 250 200 Q 300 220, 320 260 Q 330 280, 320 300 Q 310 310, 300 300" 
        fill="none" stroke="url(#crestedGrad)" stroke-width="30" stroke-linecap="round"/>
  
  <!-- 몸통 -->
  <ellipse cx="200" cy="200" rx="80" ry="50" fill="url(#crestedGrad)"/>
  <ellipse cx="200" cy="200" rx="80" ry="50" fill="url(#crestedPattern)"/>
  
  <!-- 머리 -->
  <ellipse cx="140" cy="180" rx="45" ry="40" fill="url(#crestedGrad)"/>
  
  <!-- 크레스트 (머리 장식) - 특징적인 부분 -->
  <path d="M 110 150 Q 115 140, 120 150 Q 125 140, 130 150 Q 135 140, 140 150 Q 145 140, 150 150 Q 155 140, 160 150" 
        fill="none" stroke="#059669" stroke-width="4" stroke-linecap="round"/>
  
  <!-- 눈 - 크레스티드게코의 큰 눈 -->
  <ellipse cx="125" cy="175" rx="12" ry="15" fill="#fbbf24"/>
  <ellipse cx="125" cy="177" rx="3" ry="10" fill="#1f2937"/>
  <circle cx="127" cy="172" r="2" fill="white"/>
  
  <ellipse cx="155" cy="175" rx="12" ry="15" fill="#fbbf24"/>
  <ellipse cx="155" cy="177" rx="3" ry="10" fill="#1f2937"/>
  <circle cx="157" cy="172" r="2" fill="white"/>
  
  <!-- 발 - 나뭇가지를 잡고 있는 모습 -->
  <ellipse cx="170" cy="270" rx="15" ry="20" fill="#10b981" transform="rotate(-20 170 270)"/>
  <ellipse cx="230" cy="270" rx="15" ry="20" fill="#10b981" transform="rotate(20 230 270)"/>
  
  <!-- 패드가 있는 발가락 -->
  <circle cx="165" cy="285" r="5" fill="#059669"/>
  <circle cx="175" cy="287" r="5" fill="#059669"/>
  <circle cx="225" cy="285" r="5" fill="#059669"/>
  <circle cx="235" cy="287" r="5" fill="#059669"/>
  
  <!-- 입 -->
  <path d="M 120 190 Q 140 195, 160 190" fill="none" stroke="#059669" stroke-width="2" stroke-linecap="round"/>
</svg>