<svg width="400" height="400" viewBox="0 0 400 400" xmlns="http://www.w3.org/2000/svg">
  <defs>
    <linearGradient id="geckoGrad" x1="0%" y1="0%" x2="100%" y2="100%">
      <stop offset="0%" style="stop-color:#fef3c7;stop-opacity:1" />
      <stop offset="50%" style="stop-color:#fde68a;stop-opacity:1" />
      <stop offset="100%" style="stop-color:#fbbf24;stop-opacity:1" />
    </linearGradient>
    <pattern id="leopardSpots" x="0" y="0" width="40" height="40" patternUnits="userSpaceOnUse">
      <circle cx="10" cy="10" r="6" fill="#92400e" opacity="0.6"/>
      <circle cx="30" cy="25" r="5" fill="#92400e" opacity="0.5"/>
      <circle cx="15" cy="30" r="4" fill="#92400e" opacity="0.6"/>
    </pattern>
  </defs>
  
  <!-- 배경 -->
  <rect width="400" height="400" fill="#fef9c3" rx="20"/>
  
  <!-- 꼬리 -->
  <ellipse cx="280" cy="250" rx="80" ry="30" fill="url(#geckoGrad)" transform="rotate(30 280 250)"/>
  <ellipse cx="280" cy="250" rx="80" ry="30" fill="url(#leopardSpots)" opacity="0.7" transform="rotate(30 280 250)"/>
  
  <!-- 몸통 -->
  <ellipse cx="200" cy="200" rx="100" ry="60" fill="url(#geckoGrad)"/>
  <ellipse cx="200" cy="200" rx="100" ry="60" fill="url(#leopardSpots)" opacity="0.7"/>
  
  <!-- 머리 -->
  <ellipse cx="120" cy="180" rx="50" ry="40" fill="url(#geckoGrad)"/>
  <ellipse cx="120" cy="180" rx="50" ry="40" fill="url(#leopardSpots)" opacity="0.7"/>
  
  <!-- 눈 - 큰 특징적인 눈 -->
  <ellipse cx="100" cy="175" rx="15" ry="18" fill="#f59e0b"/>
  <ellipse cx="100" cy="177" rx="4" ry="12" fill="#1f2937"/>
  <ellipse cx="140" cy="175" rx="15" ry="18" fill="#f59e0b"/>
  <ellipse cx="140" cy="177" rx="4" ry="12" fill="#1f2937"/>
  
  <!-- 발 -->
  <ellipse cx="150" cy="240" rx="20" ry="15" fill="#fbbf24" transform="rotate(-20 150 240)"/>
  <ellipse cx="250" cy="240" rx="20" ry="15" fill="#fbbf24" transform="rotate(20 250 240)"/>
  
  <!-- 발가락 -->
  <circle cx="145" cy="250" r="4" fill="#f59e0b"/>
  <circle cx="155" cy="252" r="4" fill="#f59e0b"/>
  <circle cx="245" cy="250" r="4" fill="#f59e0b"/>
  <circle cx="255" cy="252" r="4" fill="#f59e0b"/>
  
  <!-- 미소 -->
  <path d="M 100 190 Q 120 195, 140 190" fill="none" stroke="#92400e" stroke-width="2" stroke-linecap="round"/>
</svg>