<svg width="400" height="400" viewBox="0 0 400 400" xmlns="http://www.w3.org/2000/svg">
  <defs>
    <radialGradient id="geckoGrad2" cx="50%" cy="50%" r="50%">
      <stop offset="0%" style="stop-color:#fde68a;stop-opacity:1" />
      <stop offset="60%" style="stop-color:#fbbf24;stop-opacity:1" />
      <stop offset="100%" style="stop-color:#d97706;stop-opacity:1" />
    </radialGradient>
    <pattern id="leopardPattern2" x="0" y="0" width="25" height="25" patternUnits="userSpaceOnUse">
      <ellipse cx="12" cy="12" rx="10" ry="8" fill="#92400e" opacity="0.6" transform="rotate(30 12 12)"/>
    </pattern>
  </defs>
  
  <!-- 배경 -->
  <rect width="400" height="400" fill="#fef9c3" rx="20"/>
  
  <!-- 잎사귀 배경 -->
  <ellipse cx="100" cy="100" rx="60" ry="30" fill="#84cc16" opacity="0.3" transform="rotate(-45 100 100)"/>
  <ellipse cx="300" cy="300" rx="60" ry="30" fill="#84cc16" opacity="0.3" transform="rotate(45 300 300)"/>
  
  <!-- 그림자 -->
  <ellipse cx="200" cy="330" rx="100" ry="25" fill="#78716c" opacity="0.3"/>
  
  <!-- 꼬리 (말린 상태) -->
  <path d="M 240 240 Q 280 250, 300 280 Q 310 310, 280 320 Q 250 310, 260 290"
        fill="url(#geckoGrad2)" stroke="none"/>
  <path d="M 240 240 Q 280 250, 300 280 Q 310 310, 280 320 Q 250 310, 260 290"
        fill="url(#leopardPattern2)" opacity="0.7"/>
  
  <!-- 뒷다리 -->
  <ellipse cx="180" cy="260" rx="20" ry="35" fill="url(#geckoGrad2)" transform="rotate(-20 180 260)"/>
  <ellipse cx="220" cy="260" rx="20" ry="35" fill="url(#geckoGrad2)" transform="rotate(20 220 260)"/>
  
  <!-- 몸통 (위에서 본 모습) -->
  <ellipse cx="200" cy="220" rx="80" ry="50" fill="url(#geckoGrad2)"/>
  <ellipse cx="200" cy="220" rx="80" ry="50" fill="url(#leopardPattern2)" opacity="0.7"/>
  
  <!-- 앞다리 -->
  <ellipse cx="150" cy="200" rx="18" ry="30" fill="url(#geckoGrad2)" transform="rotate(-40 150 200)"/>
  <ellipse cx="250" cy="200" rx="18" ry="30" fill="url(#geckoGrad2)" transform="rotate(40 250 200)"/>
  
  <!-- 머리 -->
  <ellipse cx="200" cy="160" rx="40" ry="35" fill="url(#geckoGrad2)"/>
  <ellipse cx="200" cy="160" rx="40" ry="35" fill="url(#leopardPattern2)" opacity="0.7"/>
  
  <!-- 눈 (특징적인 큰 눈) -->
  <circle cx="180" cy="155" r="15" fill="#f59e0b"/>
  <circle cx="180" cy="155" r="13" fill="#1f2937"/>
  <ellipse cx="180" cy="155" rx="4" ry="10" fill="#171717"/>
  <circle cx="182" cy="152" r="3" fill="white"/>
  
  <circle cx="220" cy="155" r="15" fill="#f59e0b"/>
  <circle cx="220" cy="155" r="13" fill="#1f2937"/>
  <ellipse cx="220" cy="155" rx="4" ry="10" fill="#171717"/>
  <circle cx="222" cy="152" r="3" fill="white"/>
  
  <!-- 코 -->
  <ellipse cx="200" cy="175" rx="3" ry="2" fill="#7c2d12"/>
  
  <!-- 발가락 디테일 -->
  <ellipse cx="140" cy="225" rx="10" ry="6" fill="#d97706"/>
  <ellipse cx="260" cy="225" rx="10" ry="6" fill="#d97706"/>
  <ellipse cx="170" cy="290" rx="10" ry="6" fill="#d97706"/>
  <ellipse cx="230" cy="290" rx="10" ry="6" fill="#d97706"/>
</svg>