<svg width="400" height="400" viewBox="0 0 400 400" xmlns="http://www.w3.org/2000/svg">
  <defs>
    <radialGradient id="shellGrad" cx="50%" cy="40%" r="60%">
      <stop offset="0%" style="stop-color:#d97706;stop-opacity:1" />
      <stop offset="50%" style="stop-color:#b45309;stop-opacity:1" />
      <stop offset="100%" style="stop-color:#92400e;stop-opacity:1" />
    </radialGradient>
    <pattern id="shellPattern" x="0" y="0" width="60" height="60" patternUnits="userSpaceOnUse">
      <polygon points="30,5 55,30 30,55 5,30" fill="none" stroke="#7c2d12" stroke-width="3"/>
      <polygon points="30,15 45,30 30,45 15,30" fill="none" stroke="#7c2d12" stroke-width="2" opacity="0.5"/>
    </pattern>
  </defs>
  
  <!-- 배경 -->
  <rect width="400" height="400" fill="#fef3c7" rx="20"/>
  
  <!-- 그림자 -->
  <ellipse cx="200" cy="320" rx="120" ry="30" fill="#92400e" opacity="0.2"/>
  
  <!-- 다리 -->
  <ellipse cx="130" cy="280" rx="25" ry="35" fill="#78716c"/>
  <ellipse cx="270" cy="280" rx="25" ry="35" fill="#78716c"/>
  
  <!-- 등껍질 -->
  <ellipse cx="200" cy="220" rx="130" ry="90" fill="url(#shellGrad)"/>
  <ellipse cx="200" cy="220" rx="130" ry="90" fill="url(#shellPattern)" opacity="0.8"/>
  
  <!-- 등껍질 하이라이트 -->
  <ellipse cx="180" cy="190" rx="40" ry="25" fill="#fbbf24" opacity="0.3"/>
  
  <!-- 머리 -->
  <ellipse cx="120" cy="200" rx="40" ry="35" fill="#78716c"/>
  
  <!-- 목 -->
  <rect x="120" y="195" width="50" height="30" fill="#78716c"/>
  
  <!-- 눈 -->
  <circle cx="105" cy="195" r="8" fill="#1f2937"/>
  <circle cx="107" cy="193" r="2" fill="white"/>
  <circle cx="135" cy="195" r="8" fill="#1f2937"/>
  <circle cx="137" cy="193" r="2" fill="white"/>
  
  <!-- 코 -->
  <ellipse cx="120" cy="210" rx="3" ry="2" fill="#57534e"/>
  
  <!-- 입 -->
  <path d="M 105 215 Q 120 220, 135 215" fill="none" stroke="#57534e" stroke-width="2" stroke-linecap="round"/>
  
  <!-- 뒷다리 -->
  <ellipse cx="160" cy="290" rx="20" ry="25" fill="#78716c" opacity="0.8"/>
  <ellipse cx="240" cy="290" rx="20" ry="25" fill="#78716c" opacity="0.8"/>
  
  <!-- 발톱 -->
  <ellipse cx="125" cy="310" rx="4" ry="6" fill="#57534e"/>
  <ellipse cx="135" cy="310" rx="4" ry="6" fill="#57534e"/>
  <ellipse cx="265" cy="310" rx="4" ry="6" fill="#57534e"/>
  <ellipse cx="275" cy="310" rx="4" ry="6" fill="#57534e"/>
</svg>